HIERARCHY
ROOT root
{
	OFFSET 0.000000 0.000000 0.000000
	CHANNELS 6 Xposition Yposition Zposition Zrotation Yrotation Xrotation
	JOINT lhip
	{
		OFFSET 0.058581 -0.082280 -0.017664
		CHANNELS 3 Zrotation Yrotation Xrotation
		JOINT lknee
		{
			OFFSET 0.043451 -0.386469 0.008037
			CHANNELS 3 Zrotation Yrotation Xrotation
			JOINT lankle
			{
				OFFSET -0.014790 -0.426874 -0.037428
				CHANNELS 3 Zrotation Yrotation Xrotation
				JOINT ltoe
				{
					OFFSET 0.041054 -0.060286 0.122042
					CHANNELS 3 Zrotation Yrotation Xrotation
					End Site
					{
						OFFSET 0.000000 0.000000 0.000000
					}
				}
			}
		}
	}
	JOINT rhip
	{
		OFFSET -0.060310 -0.090513 -0.013543
		CHANNELS 3 Zrotation Yrotation Xrotation
		JOINT rknee
		{
			OFFSET -0.043257 -0.383688 -0.004843
			CHANNELS 3 Zrotation Yrotation Xrotation
			JOINT rankle
			{
				OFFSET 0.019056 -0.420046 -0.034562
				CHANNELS 3 Zrotation Yrotation Xrotation
				JOINT rtoe
				{
					OFFSET -0.034840 -0.062106 0.130323
					CHANNELS 3 Zrotation Yrotation Xrotation
					End Site
					{
						OFFSET 0.000000 0.000000 0.000000
					}
				}
			}
		}
	}
	JOINT lowerback
	{
		OFFSET 0.004439 0.124404 -0.038385
		CHANNELS 3 Zrotation Yrotation Xrotation
		JOINT upperback
		{
			OFFSET 0.004488 0.137956 0.026820
			CHANNELS 3 Zrotation Yrotation Xrotation
			JOINT chest
			{
				OFFSET -0.002265 0.056032 0.002855
				CHANNELS 3 Zrotation Yrotation Xrotation
				JOINT lowerneck
				{
					OFFSET -0.013390 0.211636 -0.033468
					CHANNELS 3 Zrotation Yrotation Xrotation
					JOINT upperneck
					{
						OFFSET 0.010113 0.088937 0.050410
						CHANNELS 3 Zrotation Yrotation Xrotation
						End Site
						{
							OFFSET 0.000000 0.000000 0.000000
						}
					}
				}
				JOINT lclavicle
				{
					OFFSET 0.071702 0.114000 -0.018898
					CHANNELS 3 Zrotation Yrotation Xrotation
					JOINT lshoulder
					{
						OFFSET 0.122921 0.045205 -0.019046
						CHANNELS 3 Zrotation Yrotation Xrotation
						JOINT lelbow
						{
							OFFSET 0.255332 -0.015649 -0.022946
							CHANNELS 3 Zrotation Yrotation Xrotation
							JOINT lwrist
							{
								OFFSET 0.265709 0.012698 -0.007375
								CHANNELS 3 Zrotation Yrotation Xrotation
								End Site
								{
									OFFSET 0.000000 0.000000 0.000000
								}
							}
						}
					}
				}
				JOINT rclavicle
				{
					OFFSET -0.082954 0.112472 -0.023707
					CHANNELS 3 Zrotation Yrotation Xrotation
					JOINT rshoulder
					{
						OFFSET -0.113228 0.046853 -0.008472
						CHANNELS 3 Zrotation Yrotation Xrotation
						JOINT relbow
						{
							OFFSET -0.260127 -0.014369 -0.031269
							CHANNELS 3 Zrotation Yrotation Xrotation
							JOINT rwrist
							{
								OFFSET -0.269108 0.006794 -0.006027
								CHANNELS 3 Zrotation Yrotation Xrotation
								End Site
								{
									OFFSET 0.000000 0.000000 0.000000
								}
							}
						}
					}
				}
			}
		}
	}
}
MOTION
Frames: 7
Frame Time: 0.033333
-1.851641 0.320972 1.030858 91.848944 -0.824984 85.783044 -4.317344 -0.470407 5.916296 -4.432109 -14.467454 3.480642 4.769680 6.952082 -7.195895 0.000000 -0.000000 0.000000 -2.948031 -2.047293 -7.859108 1.722527 -3.711119 29.267798 7.335812 -8.149155 -12.729554 0.000000 -0.000000 0.000000 -6.168655 -0.051063 14.270356 -0.638759 -4.142083 -1.243308 -1.301588 -1.157446 4.043014 13.404115 -3.310265 -11.110115 5.110847 -14.074417 4.774895 -25.116457 6.224502 -2.497843 -50.334231 -8.984261 8.151952 6.236844 -26.960864 3.896747 -3.952168 -3.426366 -5.777101 31.581042 0.233829 -3.158555 53.480309 6.391268 10.520803 -15.066554 8.959035 -13.097577 7.105579 -1.373475 -2.735422 
-1.851299 0.319244 1.030914 91.308609 -0.883459 85.970387 -4.191237 -0.402907 5.940065 -4.415752 -14.032438 3.099138 4.406007 7.239425 -7.484534 0.000000 -0.000000 0.000000 -2.753903 -2.107860 -7.022323 1.411675 -2.848813 27.010302 7.189028 -7.978951 -11.405043 0.000000 -0.000000 0.000000 -6.151945 0.106487 13.837500 -0.671393 -3.866626 -1.275794 -1.184719 -1.061553 4.105514 12.751715 -3.210416 -11.037002 4.932900 -13.531468 4.330583 -25.244692 6.384290 -2.663584 -50.310209 -8.866778 7.934895 6.394054 -25.981016 3.516301 -3.764418 -3.204751 -5.718799 31.600683 -0.061175 -3.309217 53.651369 6.278880 10.740166 -14.798752 8.812611 -12.997964 7.029781 -1.346986 -3.114538 
-1.851365 0.317182 1.031567 90.692441 -0.811738 86.247455 -4.006091 -0.328529 5.792847 -4.289991 -13.671926 2.880610 4.048966 7.268335 -7.672719 0.000000 -0.000000 0.000000 -2.246341 -2.095621 -5.924598 1.405522 -2.359477 24.570229 7.135981 -7.419726 -11.340341 0.000000 -0.000000 0.000000 -5.940343 0.122399 13.354569 -0.611017 -3.787777 -1.267017 -1.099641 -0.846642 3.902275 12.073505 -2.936701 -10.767796 4.582983 -13.127896 4.251868 -25.436584 6.440444 -2.621797 -50.329875 -8.576243 7.706653 6.782160 -24.864231 2.920262 -3.759495 -3.128827 -5.623648 31.758964 -0.073476 -3.043266 53.682118 6.194979 10.723858 -14.770236 8.833623 -12.997615 7.064518 -1.269212 -3.539022 
-1.851621 0.313853 1.033170 89.896214 -0.641333 86.820777 -3.785950 -0.258085 5.330697 -3.999687 -13.048906 2.659225 3.829304 7.313149 -7.550930 0.000000 -0.000000 0.000000 -1.440572 -2.613745 -4.478531 1.164400 -2.224112 20.576011 6.974703 -7.253248 -11.236456 0.000000 -0.000000 0.000000 -5.652678 0.295044 12.558034 -0.444420 -3.728830 -1.520283 -0.817182 -0.721030 3.686067 11.314772 -2.641561 -10.322015 4.158985 -12.439783 4.397489 -25.644821 6.835970 -2.816891 -50.515574 -8.269986 7.545187 6.902529 -23.770987 2.719797 -3.669060 -2.915832 -5.424952 31.792772 -0.485258 -3.037001 53.765194 6.108015 10.686608 -14.570187 8.512827 -12.948933 6.899536 -1.161734 -3.875691 
-1.851981 0.311411 1.034400 89.100681 -0.579669 87.081476 -3.711297 -0.340364 5.302846 -3.781231 -12.649136 2.246581 3.885548 7.410463 -7.375860 0.000000 -0.000000 0.000000 -1.051175 -2.554628 -4.143838 1.006953 -1.393051 19.291776 7.180957 -6.908480 -10.573175 0.000000 -0.000000 0.000000 -5.591764 0.345317 12.026426 -0.290630 -3.588674 -1.473373 -0.708760 -0.574956 3.659186 11.103245 -2.328510 -10.486668 3.724794 -12.147102 4.813698 -25.798148 7.126080 -2.975921 -50.572133 -8.239345 7.557719 7.004026 -23.169895 2.670318 -3.769651 -3.379141 -5.350491 31.947219 -0.698210 -3.069697 53.781472 6.324279 10.925249 -14.630976 8.124804 -12.879580 6.870585 -1.065826 -3.909161 
-1.853018 0.309275 1.036415 88.480534 -0.354910 87.321316 -3.595318 -0.376145 5.019230 -3.466129 -12.325314 2.262517 3.906243 7.747244 -7.386027 0.000000 -0.000000 0.000000 -0.802829 -2.253966 -4.037332 1.276510 -0.699569 18.257976 7.492844 -6.523173 -9.826020 0.000000 -0.000000 0.000000 -5.199751 0.180016 11.661539 -0.076714 -3.425449 -1.503772 -0.580600 -0.564299 3.524513 10.715305 -1.943436 -10.177826 3.348238 -11.419315 5.010023 -26.034015 7.383294 -3.001084 -50.673710 -8.100352 7.581026 7.034145 -22.993437 2.503851 -3.786182 -3.086670 -5.187829 31.911116 -0.916354 -3.192334 53.740565 6.468109 11.027327 -14.472961 7.867982 -12.785935 6.698893 -1.147668 -3.665553 
-1.853378 0.306935 1.037827 87.975317 -0.201305 87.459540 -3.407887 -0.483952 5.004823 -3.313551 -12.011213 2.031528 3.809559 7.924474 -7.495763 0.000000 -0.000000 0.000000 -0.622751 -2.154509 -3.656318 1.506213 -0.689961 17.113858 7.554234 -6.344774 -9.238973 0.000000 -0.000000 0.000000 -4.769476 -0.072087 11.393867 0.045349 -3.505265 -1.515030 -0.508616 -0.457853 3.434891 10.580386 -1.818935 -9.970287 3.011774 -10.965952 5.053883 -26.018181 7.778321 -2.895579 -50.941719 -7.813902 7.563541 7.195135 -23.742016 2.527594 -3.709994 -2.904992 -5.498020 31.836732 -1.055610 -2.995132 53.941100 6.504974 11.097504 -14.674846 8.095100 -12.509662 6.330794 -1.406799 -3.508928 
